<svg width="482" height="330" viewBox="0 0 482 330" fill="none" xmlns="http://www.w3.org/2000/svg">
<g clip-path="url(#clip0_6_867)">
<path d="M473.381 300.093C470.083 311.553 460.454 319.576 450.41 326.391C449.008 327.343 447.605 328.273 446.201 329.181C446.192 329.185 446.182 329.194 446.172 329.198C446.105 329.242 446.037 329.285 445.974 329.329C445.685 329.516 445.395 329.703 445.108 329.888L445.265 329.959C445.265 329.959 445.42 330.042 445.251 329.972C445.2 329.951 445.148 329.932 445.097 329.911C439.262 327.553 433.323 325.022 428.852 320.605C424.213 316.019 421.502 308.826 424.014 302.801C424.344 302.011 424.761 301.261 425.257 300.565C425.461 300.273 425.681 299.993 425.909 299.719C427.295 298.025 429.106 296.731 431.156 295.971C433.206 295.21 435.421 295.01 437.574 295.392C439.727 295.773 441.739 296.723 443.404 298.142C445.069 299.561 446.327 301.398 447.049 303.466C447.787 296.583 442.121 290.817 436.669 286.563C431.215 282.311 425.017 277.681 423.962 270.836C423.373 267.028 424.695 263.337 427.103 260.374C427.178 260.284 427.252 260.194 427.329 260.107C430.261 256.656 434.383 254.44 438.874 253.902C447.238 253.031 455.362 257.466 461.438 263.292C471.218 272.665 477.13 287.062 473.381 300.093Z" fill="#F2F2F2"/>
<path d="M457.66 285.102C459.265 287.604 460.498 290.327 461.318 293.185C462.012 295.74 462.321 298.384 462.235 301.03C462.011 306.475 460.485 311.786 457.786 316.518C455.752 320.107 453.274 323.425 450.41 326.391C449.008 327.343 447.605 328.273 446.201 329.181C446.192 329.185 446.182 329.194 446.172 329.198C446.105 329.242 446.037 329.285 445.974 329.329C445.685 329.516 445.395 329.703 445.108 329.888C445.108 329.888 445.42 330.042 445.251 329.972C445.2 329.951 445.148 329.932 445.097 329.911C445.62 325.616 445.108 321.257 443.603 317.201C442.098 313.145 439.645 309.509 436.449 306.598C433.245 303.732 429.41 301.664 425.257 300.565C425.461 300.273 425.68 299.993 425.909 299.719C427.513 300.17 429.074 300.761 430.574 301.487C435.936 304.067 440.326 308.307 443.095 313.581C445.579 318.369 446.649 323.768 446.177 329.145C446.417 328.927 446.657 328.705 446.89 328.484C451.324 324.343 455.262 319.589 457.928 314.103C460.24 309.458 461.376 304.313 461.237 299.124C461.019 293.465 458.769 288.224 455.51 283.661C451.939 278.793 447.72 274.438 442.971 270.715C438.185 266.874 432.947 263.635 427.375 261.069C427.25 261.01 427.151 260.905 427.101 260.776C427.05 260.647 427.051 260.503 427.103 260.374C427.14 260.259 427.222 260.163 427.329 260.107C427.384 260.083 427.444 260.072 427.505 260.074C427.565 260.077 427.624 260.093 427.677 260.122C428.365 260.439 429.048 260.76 429.725 261.096C435.37 263.891 440.646 267.377 445.432 271.475C450.055 275.424 454.408 279.935 457.66 285.102Z" fill="white"/>
<path d="M401.909 7.43321e-09H5.69177C4.1826 0.00137658 2.73565 0.602583 1.66853 1.67165C0.601409 2.74072 0.00132565 4.19029 0 5.70216V274.671C0.00132392 276.183 0.601409 277.633 1.66853 278.702C2.73565 279.771 4.1826 280.372 5.69177 280.373H401.909C402.732 280.374 403.545 280.195 404.293 279.849C405.04 279.504 405.703 279 406.237 278.372C406.282 278.323 406.324 278.271 406.361 278.216C406.701 277.799 406.976 277.334 407.177 276.836C407.463 276.15 407.61 275.414 407.608 274.671V5.70219C407.606 4.18925 407.005 2.73885 405.936 1.66966C404.868 0.600459 403.419 -7.71458e-05 401.909 7.43321e-09ZM405.982 274.671C405.983 275.467 405.749 276.245 405.31 276.908C404.92 277.491 404.39 277.968 403.77 278.294C403.195 278.592 402.556 278.746 401.909 278.745H5.69177C4.61363 278.744 3.58004 278.314 2.81768 277.551C2.05533 276.787 1.62646 275.751 1.62515 274.671V5.70219C1.62646 4.62212 2.05533 3.58667 2.81768 2.82295C3.58004 2.05923 4.61363 1.62959 5.69177 1.62828H401.909C402.988 1.62814 404.023 2.05709 404.787 2.82094C405.551 3.58478 405.981 4.62106 405.982 5.70219V274.671Z" fill="#3F3D56"/>
<path d="M406.791 22.8539H0.811035V24.484H406.791V22.8539Z" fill="#3F3D56"/>
<path d="M14.642 17.116C17.338 17.116 19.5236 14.9265 19.5236 12.2257C19.5236 9.52487 17.338 7.33542 14.642 7.33542C11.946 7.33542 9.7605 9.52487 9.7605 12.2257C9.7605 14.9265 11.946 17.116 14.642 17.116Z" fill="#3F3D56"/>
<path d="M28.6765 17.116C31.3724 17.116 33.558 14.9265 33.558 12.2257C33.558 9.52487 31.3724 7.33542 28.6765 7.33542C25.9805 7.33542 23.7949 9.52487 23.7949 12.2257C23.7949 14.9265 25.9805 17.116 28.6765 17.116Z" fill="#3F3D56"/>
<path d="M42.7109 17.116C45.4069 17.116 47.5924 14.9265 47.5924 12.2257C47.5924 9.52487 45.4069 7.33542 42.7109 7.33542C40.0149 7.33542 37.8293 9.52487 37.8293 12.2257C37.8293 14.9265 40.0149 17.116 42.7109 17.116Z" fill="#3F3D56"/>
<path d="M262.935 114.671C260.33 114.671 257.784 113.898 255.618 112.448C253.453 110.998 251.765 108.938 250.768 106.528C249.772 104.117 249.511 101.464 250.019 98.9054C250.527 96.3464 251.781 93.9957 253.623 92.1508C255.465 90.3058 257.811 89.0494 260.365 88.5403C262.92 88.0313 265.568 88.2926 267.974 89.291C270.38 90.2895 272.437 91.9804 273.884 94.1499C275.331 96.3193 276.103 98.8699 276.103 101.479C276.099 104.977 274.711 108.33 272.242 110.803C269.773 113.276 266.426 114.667 262.935 114.671ZM262.935 89.5371C260.577 89.5371 258.272 90.2375 256.312 91.5497C254.351 92.8619 252.824 94.727 251.921 96.9091C251.019 99.0912 250.783 101.492 251.243 103.809C251.703 106.125 252.838 108.253 254.505 109.923C256.172 111.594 258.297 112.731 260.609 113.192C262.921 113.652 265.318 113.416 267.496 112.512C269.675 111.608 271.536 110.078 272.846 108.114C274.156 106.15 274.855 103.841 274.855 101.479C274.852 98.313 273.595 95.2776 271.36 93.0388C269.125 90.8 266.095 89.5407 262.935 89.5371Z" fill="#CAD2C5"/>
<path d="M261.691 106.273C261.409 106.273 261.134 106.182 260.909 106.012L260.895 106.002L257.946 103.743C257.671 103.531 257.49 103.218 257.445 102.873C257.399 102.528 257.492 102.179 257.704 101.902C257.915 101.626 258.227 101.445 258.572 101.4C258.916 101.354 259.265 101.448 259.541 101.659L261.45 103.126L265.963 97.2289C266.067 97.0921 266.198 96.9774 266.347 96.8912C266.496 96.805 266.66 96.749 266.83 96.7264C267.001 96.7039 267.174 96.7152 267.34 96.7597C267.506 96.8042 267.662 96.8811 267.799 96.9859L267.771 97.0251L267.8 96.9862C268.075 97.1982 268.255 97.511 268.301 97.8559C268.346 98.2008 268.253 98.5497 268.042 98.8259L262.734 105.76C262.612 105.919 262.454 106.049 262.273 106.137C262.092 106.226 261.894 106.272 261.692 106.271L261.691 106.273Z" fill="#CAD2C5"/>
<path d="M300.614 114.671C298.009 114.671 295.463 113.898 293.298 112.448C291.132 110.998 289.444 108.938 288.448 106.528C287.451 104.117 287.19 101.464 287.698 98.9054C288.206 96.3464 289.461 93.9957 291.302 92.1508C293.144 90.3058 295.49 89.0494 298.045 88.5403C300.599 88.0313 303.247 88.2926 305.653 89.291C308.06 90.2895 310.116 91.9804 311.563 94.1499C313.01 96.3193 313.783 98.8699 313.783 101.479C313.779 104.977 312.39 108.33 309.921 110.803C307.453 113.276 304.105 114.667 300.614 114.671ZM300.614 89.5371C298.256 89.5371 295.952 90.2375 293.991 91.5497C292.031 92.8619 290.503 94.727 289.601 96.9091C288.698 99.0912 288.462 101.492 288.922 103.809C289.382 106.125 290.518 108.253 292.185 109.923C293.852 111.594 295.976 112.731 298.288 113.192C300.601 113.652 302.998 113.416 305.176 112.512C307.354 111.608 309.216 110.078 310.526 108.114C311.835 106.15 312.535 103.841 312.535 101.479C312.531 98.313 311.274 95.2775 309.039 93.0387C306.804 90.7999 303.774 89.5406 300.614 89.5371Z" fill="#E6E6E6"/>
<path d="M305.354 106.044C305.196 106.202 304.982 106.29 304.758 106.29C304.535 106.29 304.321 106.202 304.162 106.044L301.002 102.878C300.932 102.807 300.836 102.768 300.737 102.768C300.637 102.768 300.542 102.807 300.471 102.878L297.311 106.043C297.153 106.202 296.939 106.291 296.715 106.291C296.492 106.291 296.277 106.202 296.119 106.043C295.961 105.885 295.872 105.67 295.872 105.446C295.872 105.222 295.961 105.008 296.119 104.849L299.279 101.684C299.349 101.613 299.389 101.517 299.389 101.418C299.389 101.318 299.349 101.222 299.279 101.152L296.119 97.9858C295.961 97.8275 295.872 97.6127 295.872 97.3888C295.872 97.1648 295.961 96.9501 296.119 96.7917C296.277 96.6334 296.491 96.5444 296.715 96.5444C296.938 96.5444 297.153 96.6334 297.311 96.7917L300.471 99.9575C300.541 100.028 300.637 100.068 300.737 100.068C300.836 100.068 300.932 100.028 301.002 99.9574L304.162 96.7918C304.32 96.6335 304.534 96.5445 304.758 96.5445C304.982 96.5445 305.196 96.6335 305.354 96.7918C305.512 96.9502 305.601 97.165 305.601 97.389C305.601 97.6129 305.512 97.8277 305.354 97.9861L302.194 101.152C302.124 101.222 302.084 101.318 302.084 101.418C302.084 101.518 302.124 101.613 302.194 101.684L305.354 104.85C305.512 105.008 305.601 105.223 305.601 105.447C305.601 105.67 305.512 105.885 305.354 106.044Z" fill="#E6E6E6"/>
<path d="M262.935 156.554C260.33 156.554 257.784 155.781 255.618 154.331C253.453 152.882 251.765 150.821 250.768 148.411C249.772 146 249.511 143.348 250.019 140.789C250.527 138.229 251.781 135.879 253.623 134.034C255.465 132.189 257.811 130.932 260.365 130.423C262.92 129.914 265.568 130.176 267.974 131.174C270.38 132.173 272.437 133.864 273.884 136.033C275.331 138.202 276.103 140.753 276.103 143.362C276.099 146.86 274.711 150.213 272.242 152.686C269.773 155.159 266.426 156.55 262.935 156.554ZM262.935 131.42C260.577 131.42 258.272 132.121 256.312 133.433C254.351 134.745 252.824 136.61 251.921 138.792C251.019 140.974 250.783 143.375 251.243 145.692C251.703 148.008 252.838 150.136 254.505 151.806C256.172 153.477 258.297 154.614 260.609 155.075C262.921 155.536 265.318 155.299 267.496 154.395C269.675 153.491 271.536 151.961 272.846 149.997C274.156 148.033 274.855 145.724 274.855 143.362C274.852 140.196 273.595 137.161 271.36 134.922C269.125 132.683 266.095 131.424 262.935 131.42Z" fill="#CAD2C5"/>
<path d="M261.691 148.156C261.409 148.157 261.134 148.065 260.909 147.896L260.895 147.885L257.946 145.626C257.671 145.414 257.49 145.101 257.445 144.756C257.399 144.411 257.492 144.062 257.704 143.786C257.915 143.509 258.227 143.329 258.572 143.283C258.916 143.237 259.265 143.331 259.541 143.543L261.45 145.009L265.963 139.112C266.067 138.975 266.198 138.86 266.347 138.774C266.496 138.688 266.66 138.632 266.83 138.61C267.001 138.587 267.174 138.598 267.34 138.643C267.506 138.687 267.662 138.764 267.799 138.869L267.771 138.908L267.8 138.869C268.075 139.081 268.255 139.394 268.301 139.739C268.346 140.084 268.253 140.433 268.042 140.709L262.734 147.643C262.612 147.802 262.454 147.932 262.273 148.021C262.092 148.109 261.894 148.155 261.692 148.155L261.691 148.156Z" fill="#CAD2C5"/>
<path d="M300.614 156.554C298.009 156.554 295.463 155.781 293.298 154.331C291.132 152.882 289.444 150.821 288.448 148.411C287.451 146 287.19 143.348 287.698 140.789C288.206 138.229 289.461 135.879 291.302 134.034C293.144 132.189 295.49 130.932 298.045 130.423C300.599 129.914 303.247 130.176 305.653 131.174C308.06 132.173 310.116 133.864 311.563 136.033C313.01 138.202 313.783 140.753 313.783 143.362C313.779 146.86 312.39 150.213 309.921 152.686C307.453 155.159 304.105 156.551 300.614 156.554ZM300.614 131.42C298.256 131.42 295.952 132.121 293.991 133.433C292.031 134.745 290.503 136.61 289.601 138.792C288.698 140.974 288.462 143.375 288.922 145.692C289.382 148.008 290.518 150.136 292.185 151.806C293.852 153.477 295.976 154.614 298.288 155.075C300.601 155.536 302.998 155.299 305.176 154.395C307.354 153.491 309.216 151.961 310.526 149.997C311.835 148.033 312.535 145.724 312.535 143.362C312.531 140.196 311.274 137.161 309.039 134.922C306.804 132.683 303.774 131.424 300.614 131.42Z" fill="#E6E6E6"/>
<path d="M305.354 147.927C305.196 148.085 304.982 148.174 304.758 148.174C304.535 148.174 304.32 148.085 304.162 147.927L301.002 144.761C300.932 144.691 300.836 144.651 300.737 144.651C300.637 144.651 300.542 144.691 300.471 144.761L297.311 147.927C297.153 148.085 296.939 148.174 296.715 148.174C296.491 148.174 296.277 148.085 296.119 147.927C295.961 147.768 295.872 147.553 295.872 147.329C295.872 147.105 295.961 146.891 296.119 146.732L299.279 143.567C299.349 143.496 299.389 143.4 299.389 143.301C299.389 143.201 299.349 143.105 299.279 143.035L296.119 139.869C295.961 139.711 295.872 139.496 295.872 139.272C295.872 139.048 295.961 138.833 296.119 138.675C296.277 138.517 296.491 138.428 296.715 138.428C296.938 138.428 297.153 138.517 297.311 138.675L300.471 141.841C300.541 141.911 300.637 141.951 300.737 141.951C300.836 141.951 300.932 141.911 301.002 141.841L304.162 138.675C304.32 138.517 304.534 138.428 304.758 138.428C304.982 138.428 305.196 138.517 305.354 138.675C305.512 138.833 305.601 139.048 305.601 139.272C305.601 139.496 305.512 139.711 305.354 139.869L302.194 143.035C302.124 143.105 302.084 143.201 302.084 143.301C302.084 143.401 302.124 143.496 302.194 143.567L305.354 146.733C305.512 146.891 305.601 147.106 305.601 147.33C305.601 147.553 305.512 147.768 305.354 147.927Z" fill="#E6E6E6"/>
<path d="M262.935 198.438C260.33 198.438 257.784 197.664 255.618 196.214C253.453 194.765 251.765 192.704 250.768 190.294C249.772 187.883 249.511 185.231 250.019 182.672C250.527 180.113 251.781 177.762 253.623 175.917C255.465 174.072 257.811 172.816 260.365 172.307C262.92 171.798 265.568 172.059 267.974 173.057C270.38 174.056 272.437 175.747 273.884 177.916C275.331 180.086 276.103 182.636 276.103 185.245C276.099 188.743 274.711 192.096 272.242 194.569C269.773 197.043 266.426 198.434 262.935 198.438ZM262.935 173.303C260.577 173.303 258.272 174.004 256.312 175.316C254.351 176.628 252.824 178.493 251.921 180.675C251.019 182.857 250.783 185.259 251.243 187.575C251.703 189.892 252.838 192.02 254.505 193.69C256.172 195.36 258.297 196.497 260.609 196.958C262.921 197.419 265.318 197.182 267.496 196.278C269.675 195.374 271.536 193.844 272.846 191.88C274.156 189.916 274.855 187.607 274.855 185.245C274.852 182.079 273.595 179.044 271.36 176.805C269.125 174.566 266.095 173.307 262.935 173.303Z" fill="#E6E6E6"/>
<path d="M261.691 190.039C261.409 190.04 261.134 189.948 260.909 189.779L260.895 189.768L257.946 187.509C257.671 187.297 257.49 186.984 257.445 186.639C257.399 186.294 257.492 185.945 257.704 185.669C257.915 185.392 258.227 185.212 258.572 185.166C258.916 185.121 259.265 185.214 259.541 185.426L261.45 186.893L265.963 180.995C266.067 180.858 266.198 180.744 266.347 180.657C266.496 180.571 266.66 180.515 266.83 180.493C267.001 180.47 267.174 180.481 267.34 180.526C267.506 180.57 267.662 180.647 267.799 180.752L267.771 180.791L267.8 180.752C268.075 180.964 268.255 181.277 268.301 181.622C268.346 181.967 268.253 182.316 268.042 182.592L262.734 189.526C262.612 189.686 262.454 189.815 262.273 189.904C262.092 189.992 261.894 190.038 261.692 190.038L261.691 190.039Z" fill="#E6E6E6"/>
<path d="M300.614 198.438C298.009 198.438 295.463 197.664 293.298 196.214C291.132 194.765 289.444 192.704 288.448 190.294C287.451 187.883 287.19 185.231 287.698 182.672C288.206 180.113 289.461 177.762 291.302 175.917C293.144 174.072 295.49 172.816 298.045 172.307C300.599 171.798 303.247 172.059 305.653 173.057C308.06 174.056 310.116 175.747 311.563 177.916C313.01 180.086 313.783 182.636 313.783 185.245C313.779 188.743 312.39 192.096 309.921 194.569C307.453 197.043 304.105 198.434 300.614 198.438ZM300.614 173.303C298.256 173.303 295.952 174.004 293.991 175.316C292.031 176.628 290.503 178.493 289.601 180.675C288.698 182.857 288.462 185.259 288.922 187.575C289.382 189.892 290.518 192.02 292.185 193.69C293.852 195.36 295.976 196.497 298.288 196.958C300.601 197.419 302.998 197.182 305.176 196.278C307.354 195.374 309.216 193.844 310.526 191.88C311.835 189.916 312.535 187.607 312.535 185.245C312.531 182.079 311.274 179.044 309.039 176.805C306.804 174.566 303.774 173.307 300.614 173.303Z" fill="#E6E6E6"/>
<path d="M305.354 189.81C305.196 189.968 304.982 190.057 304.758 190.057C304.535 190.057 304.32 189.968 304.162 189.81L301.002 186.644C300.932 186.574 300.836 186.534 300.737 186.534C300.637 186.534 300.542 186.574 300.471 186.644L297.311 189.81C297.153 189.968 296.939 190.057 296.715 190.057C296.491 190.057 296.277 189.968 296.119 189.81C295.961 189.651 295.872 189.437 295.872 189.213C295.872 188.989 295.961 188.774 296.119 188.615L299.279 185.45C299.349 185.379 299.389 185.284 299.389 185.184C299.389 185.084 299.349 184.988 299.279 184.918L296.119 181.752C295.961 181.594 295.872 181.379 295.872 181.155C295.872 180.931 295.961 180.716 296.119 180.558C296.277 180.4 296.491 180.311 296.715 180.311C296.938 180.311 297.153 180.4 297.311 180.558L300.471 183.724C300.541 183.794 300.637 183.834 300.737 183.834C300.836 183.834 300.932 183.794 301.002 183.724L304.162 180.558C304.32 180.4 304.534 180.312 304.758 180.312C304.981 180.312 305.195 180.401 305.353 180.559C305.511 180.717 305.6 180.932 305.6 181.156C305.6 181.379 305.512 181.594 305.354 181.752L302.194 184.918C302.124 184.989 302.084 185.084 302.084 185.184C302.084 185.284 302.124 185.38 302.194 185.45L305.354 188.616C305.512 188.774 305.601 188.989 305.601 189.213C305.601 189.437 305.512 189.651 305.354 189.81Z" fill="#E6E6E6"/>
<path d="M481.347 329.807H232.651C232.477 329.807 232.311 329.738 232.189 329.616C232.067 329.493 231.998 329.327 231.998 329.153C231.998 328.98 232.067 328.814 232.189 328.691C232.311 328.568 232.477 328.499 232.651 328.499H481.347C481.52 328.499 481.686 328.568 481.809 328.691C481.931 328.814 482 328.98 482 329.153C482 329.327 481.931 329.493 481.809 329.616C481.686 329.738 481.52 329.807 481.347 329.807Z" fill="#3F3D56"/>
<path d="M268.056 151.344C268.878 151.841 269.798 152.152 270.752 152.255C271.706 152.357 272.671 152.249 273.579 151.938C274.486 151.626 275.315 151.119 276.006 150.452C276.697 149.786 277.234 148.975 277.579 148.078L300.892 148.855L294.559 138.501L273.391 139.35C271.848 138.87 270.183 138.974 268.712 139.642C267.24 140.309 266.064 141.495 265.406 142.973C264.749 144.451 264.655 146.12 265.144 147.663C265.632 149.206 266.668 150.515 268.056 151.344Z" fill="#FFB8B8"/>
<path d="M399.503 201.931C400.135 201.208 400.602 200.355 400.87 199.432C401.138 198.509 401.2 197.538 401.053 196.588C400.906 195.638 400.553 194.732 400.019 193.933C399.484 193.135 398.782 192.464 397.96 191.967L402.807 169.109L391.522 173.542L388.65 194.568C387.908 196.006 387.718 197.666 388.117 199.235C388.515 200.803 389.474 202.171 390.812 203.078C392.15 203.986 393.773 204.37 395.375 204.159C396.977 203.947 398.445 203.154 399.503 201.931Z" fill="#FFB8B8"/>
<path d="M344.891 321.056L336.889 321.056L333.082 290.133L344.893 290.134L344.891 321.056Z" fill="#FFB8B8"/>
<path d="M346.932 328.827L321.128 328.826V328.499C321.128 327.178 321.388 325.87 321.893 324.649C322.398 323.428 323.137 322.319 324.07 321.385C325.003 320.451 326.11 319.71 327.328 319.204C328.547 318.698 329.853 318.438 331.172 318.438L346.932 318.439L346.932 328.827Z" fill="#2F2E41"/>
<path d="M384.056 321.056L376.053 321.056L372.247 290.133L384.057 290.134L384.056 321.056Z" fill="#FFB8B8"/>
<path d="M386.097 328.827L360.293 328.826V328.499C360.293 327.178 360.553 325.87 361.058 324.649C361.562 323.428 362.302 322.319 363.235 321.385C364.167 320.451 365.275 319.71 366.493 319.204C367.712 318.698 369.018 318.438 370.337 318.438L386.097 318.439L386.097 328.827Z" fill="#2F2E41"/>
<path d="M345.725 304.91L334.396 304.455C333.624 304.422 332.895 304.086 332.368 303.519C331.84 302.952 331.557 302.2 331.578 301.425L334.77 196.551L334.978 196.476C354.832 189.281 371.257 189.825 385.191 198.136L385.347 198.23L387.259 300.373C387.266 300.764 387.196 301.153 387.052 301.516C386.907 301.88 386.692 302.21 386.419 302.49C386.145 302.769 385.819 302.991 385.459 303.142C385.099 303.293 384.713 303.371 384.322 303.371H374.77C374.089 303.37 373.43 303.133 372.905 302.7C372.379 302.267 372.02 301.665 371.887 300.996L358.875 234.683C358.83 234.454 358.705 234.248 358.522 234.103C358.339 233.958 358.111 233.883 357.878 233.892C357.645 233.9 357.423 233.992 357.251 234.15C357.08 234.308 356.97 234.523 356.942 234.755L348.758 302.324C348.668 303.036 348.322 303.692 347.786 304.168C347.249 304.644 346.558 304.908 345.841 304.911C345.802 304.911 345.763 304.911 345.725 304.91Z" fill="#2F2E41"/>
<path d="M356.746 104.579C365.6 104.579 372.778 97.3884 372.778 88.5182C372.778 79.648 365.6 72.4573 356.746 72.4573C347.891 72.4573 340.713 79.648 340.713 88.5182C340.713 97.3884 347.891 104.579 356.746 104.579Z" fill="#FFB8B8"/>
<path d="M281.375 147.549C281.196 146.977 281.196 146.364 281.374 145.792L283.035 140.461C283.216 139.884 283.57 139.377 284.048 139.008C284.526 138.639 285.106 138.426 285.709 138.398L306.743 137.466L340.867 119.942C342.052 119.563 343.3 119.422 344.539 119.526C345.779 119.631 346.985 119.979 348.09 120.55C349.195 121.122 350.177 121.907 350.979 122.859C351.781 123.811 352.388 124.913 352.764 126.1C353.141 127.288 353.281 128.538 353.175 129.779C353.069 131.021 352.72 132.229 352.148 133.335C351.575 134.441 350.791 135.423 349.839 136.226C348.887 137.028 347.787 137.634 346.602 138.01L325.689 150.162C319.342 153.851 311.874 155.105 304.674 153.691L283.613 149.557C283.208 149.477 282.825 149.313 282.487 149.075C282.15 148.837 281.866 148.531 281.655 148.176C281.537 147.978 281.443 147.768 281.375 147.549Z" fill="#CCCCCC"/>
<path d="M398.818 187.132C398.255 187.335 397.644 187.362 397.067 187.208L391.678 185.773C391.095 185.616 390.575 185.283 390.186 184.82C389.798 184.357 389.561 183.786 389.507 183.184L387.682 162.171L368.751 128.764C368.323 127.594 368.129 126.351 368.18 125.106C368.231 123.862 368.527 122.639 369.05 121.509C369.574 120.379 370.314 119.363 371.23 118.52C372.145 117.677 373.218 117.022 374.386 116.595C375.554 116.167 376.794 115.974 378.037 116.027C379.279 116.08 380.499 116.378 381.627 116.903C382.754 117.429 383.767 118.172 384.608 119.09C385.449 120.009 386.1 121.084 386.526 122.254L399.536 142.668C403.485 148.863 405.054 156.284 403.951 163.551L400.726 184.806C400.663 185.215 400.516 185.606 400.293 185.954C400.07 186.302 399.777 186.599 399.432 186.825C399.24 186.951 399.034 187.054 398.818 187.132Z" fill="#CCCCCC"/>
<path d="M339.21 117.04C341.963 114.015 345.36 111.648 349.149 110.113C352.938 108.578 357.022 107.916 361.101 108.173C361.369 108.19 361.636 108.209 361.902 108.23C365.767 108.536 369.524 109.665 372.919 111.543C376.314 113.42 379.27 116.001 381.589 119.115C383.946 122.272 385.604 125.897 386.451 129.748C387.298 133.598 387.315 137.585 386.501 141.443C383.392 156.185 384.179 171.484 388.783 185.828L393.084 199.207C393.222 199.635 393.26 200.09 393.194 200.536C393.129 200.981 392.963 201.406 392.708 201.777C392.453 202.148 392.116 202.455 391.724 202.675C391.332 202.895 390.894 203.022 390.445 203.046L368.458 204.231L362.831 194.494V204.534L336.107 205.973C336.053 205.976 336.001 205.977 335.948 205.977C335.542 205.977 335.141 205.893 334.77 205.73C334.399 205.567 334.065 205.329 333.79 205.03C333.515 204.731 333.305 204.379 333.172 203.995C333.04 203.611 332.989 203.204 333.021 202.799L336.042 165.276L332.253 139.791C331.64 135.719 331.946 131.561 333.15 127.624C334.354 123.686 336.425 120.07 339.21 117.04Z" fill="#CCCCCC"/>
<path d="M367.888 103.851C366.403 104.706 360.536 105.274 360.118 103.61L360.109 103.573C359.818 102.354 360.06 101.081 360.143 99.8308C360.227 98.5803 360.105 97.2065 359.255 96.287C357.67 94.573 354.85 95.4816 352.558 95.0482C351.216 94.7481 350.029 93.9682 349.219 92.8545C348.409 91.7408 348.032 90.3696 348.159 88.9976C348.191 88.7377 348.243 88.4774 348.3 88.2174C348.443 87.5585 348.432 86.8752 348.268 86.2213C348.103 85.5674 347.789 84.9606 347.351 84.4486C346.913 83.9365 346.363 83.5332 345.743 83.2702C345.123 83.0072 344.451 82.8918 343.779 82.9329C341.463 83.0656 338.963 83.7685 337.046 82.05C335.565 80.7211 335.203 77.2618 335.854 75.3792C336.948 72.2153 343.957 70.559 347.017 69.6485C350.802 68.553 354.783 68.3161 358.671 68.9552C362.558 69.5942 366.255 71.0931 369.492 73.3428C371.425 74.7077 373.23 76.4227 374.054 78.6433C374.877 80.864 374.48 83.6656 372.622 85.1315C374.062 86.6589 375.076 88.5385 375.563 90.5821C376.049 92.6257 375.991 94.7615 375.394 96.7754C374.476 99.7373 370.097 102.577 367.888 103.851Z" fill="#2F2E41"/>
<path d="M146.621 104.675H43.9695C42.6465 104.673 41.3782 104.145 40.4432 103.208C39.5083 102.27 38.9832 100.999 38.9832 99.6735C38.9832 98.3482 39.5083 97.077 40.4432 96.1393C41.3782 95.2016 42.6465 94.6741 43.9695 94.6726H146.621C147.944 94.6741 149.212 95.2016 150.147 96.1393C151.082 97.077 151.607 98.3482 151.607 99.6735C151.607 100.999 151.082 102.27 150.147 103.208C149.212 104.145 147.944 104.673 146.621 104.675Z" fill="#CAD2C5"/>
<path d="M209.997 108.939H33.7555C33.5824 108.939 33.4164 108.871 33.294 108.748C33.1716 108.625 33.1028 108.459 33.1028 108.286C33.1028 108.112 33.1716 107.946 33.294 107.823C33.4164 107.7 33.5824 107.632 33.7555 107.632H209.997C210.17 107.632 210.336 107.7 210.459 107.823C210.581 107.946 210.65 108.112 210.65 108.286C210.65 108.459 210.581 108.625 210.459 108.748C210.336 108.871 210.17 108.939 209.997 108.939Z" fill="#3F3D56"/>
<path d="M146.621 146.558H43.9696C42.6456 146.558 41.3759 146.031 40.4397 145.093C39.5035 144.155 38.9775 142.883 38.9775 141.557C38.9775 140.23 39.5035 138.958 40.4397 138.02C41.3759 137.083 42.6456 136.556 43.9696 136.556H146.621C147.944 136.557 149.212 137.085 150.147 138.022C151.082 138.96 151.607 140.231 151.607 141.557C151.607 142.882 151.082 144.153 150.147 145.091C149.212 146.029 147.944 146.556 146.621 146.558Z" fill="#CAD2C5"/>
<path d="M209.997 150.823H33.7555C33.5824 150.823 33.4164 150.754 33.294 150.631C33.1716 150.509 33.1028 150.342 33.1028 150.169C33.1028 149.995 33.1716 149.829 33.294 149.706C33.4164 149.584 33.5824 149.515 33.7555 149.515H209.997C210.17 149.515 210.336 149.584 210.459 149.706C210.581 149.829 210.65 149.995 210.65 150.169C210.65 150.342 210.581 150.509 210.459 150.631C210.336 150.754 210.17 150.823 209.997 150.823Z" fill="#3F3D56"/>
<path d="M146.621 188.441H43.9696C42.6456 188.441 41.3759 187.914 40.4397 186.976C39.5035 186.038 38.9775 184.766 38.9775 183.44C38.9775 182.113 39.5035 180.841 40.4397 179.904C41.3759 178.966 42.6456 178.439 43.9696 178.439H146.621C147.944 178.44 149.212 178.968 150.147 179.906C151.082 180.843 151.607 182.114 151.607 183.44C151.607 184.765 151.082 186.036 150.147 186.974C149.212 187.912 147.944 188.439 146.621 188.441Z" fill="#F2F2F2"/>
<path d="M209.997 192.706H33.7555C33.5824 192.706 33.4164 192.637 33.294 192.514C33.1716 192.391 33.1028 192.225 33.1028 192.052C33.1028 191.878 33.1716 191.712 33.294 191.589C33.4164 191.467 33.5824 191.398 33.7555 191.398H209.997C210.17 191.398 210.336 191.467 210.459 191.589C210.581 191.712 210.65 191.878 210.65 192.052C210.65 192.225 210.581 192.391 210.459 192.514C210.336 192.637 210.17 192.706 209.997 192.706Z" fill="#3F3D56"/>
</g>
<defs>
<clipPath id="clip0_6_867">
<rect width="482" height="330" fill="white"/>
</clipPath>
</defs>
</svg>
