<svg width="775" height="505" viewBox="0 0 775 505" fill="none" xmlns="http://www.w3.org/2000/svg">
<ellipse cx="249.5" cy="252.5" rx="525.5" ry="252.5" fill="#D9D9D9" fill-opacity="0.5"/>
<g clip-path="url(#clip0_19_9)">
<path d="M95.3 148.595C96.3559 137.225 99.2721 126.106 103.932 115.681C105.231 112.78 106.661 109.943 108.221 107.169C108.299 107.024 108.318 106.854 108.273 106.696C108.229 106.537 108.124 106.402 107.982 106.319C107.84 106.236 107.671 106.211 107.511 106.25C107.351 106.289 107.212 106.389 107.124 106.528C101.45 116.629 97.4747 127.594 95.3575 138.985C94.7686 142.166 94.326 145.369 94.0296 148.595C93.9543 149.408 95.2252 149.403 95.3 148.595Z" fill="#E6E6E6"/>
<path d="M111.298 109.206C115.741 109.206 119.344 105.605 119.344 101.162C119.344 96.7185 115.741 93.1167 111.298 93.1167C106.854 93.1167 103.252 96.7185 103.252 101.162C103.252 105.605 106.854 109.206 111.298 109.206Z" fill="#E6E6E6"/>
<path d="M96.1231 148.808C96.808 141.432 98.6999 134.219 101.723 127.456C102.566 125.574 103.493 123.733 104.505 121.934C104.556 121.84 104.568 121.73 104.539 121.627C104.511 121.524 104.443 121.436 104.351 121.382C104.258 121.328 104.149 121.312 104.045 121.337C103.941 121.363 103.851 121.427 103.794 121.518C100.113 128.071 97.5338 135.185 96.1604 142.574C95.7783 144.638 95.4911 146.716 95.2989 148.808C95.2501 149.336 96.0745 149.333 96.1231 148.808Z" fill="#E6E6E6"/>
<path d="M106.502 123.255C109.384 123.255 111.721 120.919 111.721 118.036C111.721 115.154 109.384 112.817 106.502 112.817C103.619 112.817 101.282 115.154 101.282 118.036C101.282 120.919 103.619 123.255 106.502 123.255Z" fill="#E6E6E6"/>
<path d="M95.0828 148.316C91.0856 142.079 88.14 135.227 86.3636 128.036C85.8703 126.033 85.4692 124.012 85.1606 121.971C85.1427 121.865 85.0847 121.771 84.9986 121.707C84.9125 121.644 84.8051 121.617 84.6991 121.631C84.5932 121.645 84.4969 121.7 84.4305 121.784C84.3642 121.868 84.3331 121.974 84.3436 122.08C85.4723 129.511 87.8147 136.706 91.2773 143.377C92.2454 145.239 93.2973 147.054 94.433 148.823C94.7192 149.269 95.3672 148.759 95.0828 148.316Z" fill="#E6E6E6"/>
<path d="M84.3371 122.889C87.2199 122.889 89.5568 120.552 89.5568 117.67C89.5568 114.788 87.2199 112.451 84.3371 112.451C81.4544 112.451 79.1174 114.788 79.1174 117.67C79.1174 120.552 81.4544 122.889 84.3371 122.889Z" fill="#E6E6E6"/>
<path d="M79.0588 152.933V142.679C79.06 141.66 79.4656 140.682 80.1865 139.961C80.9075 139.24 81.885 138.835 82.9047 138.834H106.834C107.854 138.835 108.831 139.24 109.552 139.961C110.273 140.682 110.679 141.66 110.68 142.679V152.933C110.679 153.953 110.273 154.93 109.552 155.651C108.831 156.372 107.854 156.778 106.834 156.779H82.9047C81.885 156.778 80.9075 156.372 80.1865 155.651C79.4656 154.93 79.06 153.953 79.0588 152.933Z" fill="#F2F2F2"/>
<path d="M105.979 87.5623H95.724C94.7044 87.5612 93.7268 87.1557 93.0059 86.4348C92.2849 85.7139 91.8793 84.7365 91.8782 83.717V41.8454C91.8793 40.8259 92.2849 39.8484 93.0059 39.1275C93.7268 38.4067 94.7044 38.0011 95.724 38H105.979C106.999 38.0011 107.977 38.4067 108.698 39.1275C109.419 39.8484 109.824 40.8259 109.825 41.8454V83.717C109.824 84.7365 109.419 85.7139 108.698 86.4348C107.977 87.1557 106.999 87.5612 105.979 87.5623Z" fill="#F2F2F2"/>
<path d="M109.398 46.118H92.3055V49.5361H109.398V46.118Z" fill="#CCCCCC"/>
<path d="M109.398 72.6082H92.3055V76.0263H109.398V72.6082Z" fill="#CCCCCC"/>
<path d="M131.618 87.5623H121.363C120.343 87.5612 119.366 87.1557 118.645 86.4348C117.924 85.7139 117.518 84.7365 117.517 83.717V41.8454C117.518 40.8259 117.924 39.8484 118.645 39.1275C119.366 38.4067 120.343 38.0011 121.363 38H131.618C132.638 38.0011 133.615 38.4067 134.336 39.1275C135.057 39.8484 135.463 40.8259 135.464 41.8454V83.717C135.463 84.7365 135.057 85.7139 134.336 86.4348C133.615 87.1557 132.638 87.5612 131.618 87.5623Z" fill="#F2F2F2"/>
<path d="M135.037 46.118H117.944V49.5361H135.037V46.118Z" fill="#CCCCCC"/>
<path d="M135.037 72.6082H117.944V76.0263H135.037V72.6082Z" fill="#CCCCCC"/>
<path d="M157.257 87.5623H147.002C145.982 87.5612 145.004 87.1557 144.283 86.4348C143.562 85.7139 143.157 84.7365 143.156 83.717V41.8454C143.157 40.8259 143.562 39.8484 144.283 39.1275C145.004 38.4067 145.982 38.0011 147.002 38H157.257C158.277 38.0011 159.254 38.4067 159.975 39.1275C160.696 39.8484 161.102 40.8259 161.103 41.8454V83.717C161.102 84.7365 160.696 85.7139 159.975 86.4348C159.254 87.1557 158.277 87.5612 157.257 87.5623Z" fill="#F2F2F2"/>
<path d="M160.676 46.118H143.583V49.5361H160.676V46.118Z" fill="#CCCCCC"/>
<path d="M160.676 72.6082H143.583V76.0263H160.676V72.6082Z" fill="#CCCCCC"/>
<path d="M170.931 156.779H160.676C159.656 156.778 158.678 156.372 157.957 155.651C157.236 154.93 156.831 153.953 156.83 152.933V111.062C156.831 110.042 157.236 109.065 157.957 108.344C158.678 107.623 159.656 107.218 160.676 107.216H170.931C171.951 107.218 172.928 107.623 173.649 108.344C174.37 109.065 174.776 110.042 174.777 111.062V152.933C174.776 153.953 174.37 154.93 173.649 155.651C172.928 156.372 171.951 156.778 170.931 156.779Z" fill="#F2F2F2"/>
<path d="M174.35 115.334H157.257V118.752H174.35V115.334Z" fill="#CCCCCC"/>
<path d="M174.35 141.825H157.257V145.243H174.35V141.825Z" fill="#CCCCCC"/>
<path d="M196.57 156.779H186.314C185.295 156.778 184.317 156.372 183.596 155.651C182.875 154.93 182.47 153.953 182.469 152.933V111.062C182.47 110.042 182.875 109.065 183.596 108.344C184.317 107.623 185.295 107.218 186.314 107.216H196.57C197.589 107.218 198.567 107.623 199.288 108.344C200.009 109.065 200.414 110.042 200.416 111.062V152.933C200.414 153.953 200.009 154.93 199.288 155.651C198.567 156.372 197.589 156.778 196.57 156.779Z" fill="#F2F2F2"/>
<path d="M199.988 115.334H182.896V118.752H199.988V115.334Z" fill="#CCCCCC"/>
<path d="M199.988 141.825H182.896V145.243H199.988V141.825Z" fill="#CCCCCC"/>
<path d="M222.209 156.779H211.953C210.933 156.778 209.956 156.372 209.235 155.651C208.514 154.93 208.108 153.953 208.107 152.933V111.062C208.108 110.042 208.514 109.065 209.235 108.344C209.956 107.623 210.933 107.218 211.953 107.216H222.209C223.228 107.218 224.206 107.623 224.927 108.344C225.648 109.065 226.053 110.042 226.054 111.062V152.933C226.053 153.953 225.648 154.93 224.927 155.651C224.206 156.372 223.228 156.778 222.209 156.779Z" fill="#F2F2F2"/>
<path d="M225.627 115.334H208.535V118.752H225.627V115.334Z" fill="#CCCCCC"/>
<path d="M225.627 141.825H208.535V145.243H225.627V141.825Z" fill="#CCCCCC"/>
<path d="M103.416 225.995H93.1601C92.1405 225.994 91.163 225.588 90.442 224.868C89.721 224.147 89.3155 223.169 89.3143 222.15V180.278C89.3155 179.259 89.721 178.281 90.442 177.56C91.163 176.839 92.1405 176.434 93.1601 176.433H103.416C104.435 176.434 105.413 176.839 106.134 177.56C106.855 178.281 107.26 179.259 107.261 180.278V222.15C107.26 223.169 106.855 224.147 106.134 224.868C105.413 225.588 104.435 225.994 103.416 225.995Z" fill="#F2F2F2"/>
<path d="M106.834 184.551H89.7416V187.969H106.834V184.551Z" fill="#CCCCCC"/>
<path d="M106.834 211.041H89.7416V214.459H106.834V211.041Z" fill="#CCCCCC"/>
<path d="M129.054 225.995H118.799C117.779 225.994 116.802 225.588 116.081 224.868C115.36 224.147 114.954 223.169 114.953 222.15V180.278C114.954 179.259 115.36 178.281 116.081 177.56C116.802 176.839 117.779 176.434 118.799 176.433H129.054C130.074 176.434 131.052 176.839 131.773 177.56C132.494 178.281 132.899 179.259 132.9 180.278V222.15C132.899 223.169 132.494 224.147 131.773 224.868C131.052 225.588 130.074 225.994 129.054 225.995Z" fill="#F2F2F2"/>
<path d="M132.473 184.551H115.38V187.969H132.473V184.551Z" fill="#CCCCCC"/>
<path d="M132.473 211.041H115.38V214.459H132.473V211.041Z" fill="#CCCCCC"/>
<path d="M154.693 225.995H144.438C143.418 225.994 142.441 225.588 141.72 224.868C140.999 224.147 140.593 223.169 140.592 222.15V180.278C140.593 179.259 140.999 178.281 141.72 177.56C142.441 176.839 143.418 176.434 144.438 176.433H154.693C155.713 176.434 156.69 176.839 157.411 177.56C158.132 178.281 158.538 179.259 158.539 180.278V222.15C158.538 223.169 158.132 224.147 157.411 224.868C156.69 225.588 155.713 225.994 154.693 225.995Z" fill="#F2F2F2"/>
<path d="M158.112 184.551H141.019V187.969H158.112V184.551Z" fill="#CCCCCC"/>
<path d="M158.112 211.041H141.019V214.459H158.112V211.041Z" fill="#CCCCCC"/>
<path d="M182.896 87.5623H172.64C171.621 87.5612 170.643 87.1557 169.922 86.4348C169.201 85.7139 168.796 84.7365 168.794 83.717V41.8454C168.796 40.8259 169.201 39.8484 169.922 39.1275C170.643 38.4067 171.621 38.0011 172.64 38H182.896C183.915 38.0011 184.893 38.4067 185.614 39.1275C186.335 39.8484 186.74 40.8259 186.742 41.8454V83.717C186.74 84.7365 186.335 85.7139 185.614 86.4348C184.893 87.1557 183.915 87.5612 182.896 87.5623Z" fill="#F2F2F2"/>
<path d="M186.314 46.118H169.222V49.5361H186.314V46.118Z" fill="#CCCCCC"/>
<path d="M186.314 72.6082H169.222V76.0263H186.314V72.6082Z" fill="#CCCCCC"/>
<path d="M208.535 87.5623H198.279C197.259 87.5612 196.282 87.1557 195.561 86.4348C194.84 85.7139 194.434 84.7365 194.433 83.717V41.8454C194.434 40.8259 194.84 39.8484 195.561 39.1275C196.282 38.4067 197.259 38.0011 198.279 38H208.535C209.554 38.0011 210.532 38.4067 211.253 39.1275C211.974 39.8484 212.379 40.8259 212.38 41.8454V83.717C212.379 84.7365 211.974 85.7139 211.253 86.4348C210.532 87.1557 209.554 87.5612 208.535 87.5623Z" fill="#F2F2F2"/>
<path d="M211.953 46.118H194.861V49.5361H211.953V46.118Z" fill="#CCCCCC"/>
<path d="M211.953 72.6082H194.861V76.0263H211.953V72.6082Z" fill="#CCCCCC"/>
<path d="M234.173 87.5623H223.918C222.898 87.5612 221.921 87.1557 221.2 86.4348C220.479 85.7139 220.073 84.7365 220.072 83.717V41.8454C220.073 40.8259 220.479 39.8484 221.2 39.1275C221.921 38.4067 222.898 38.0011 223.918 38H234.173C235.193 38.0011 236.171 38.4067 236.891 39.1275C237.612 39.8484 238.018 40.8259 238.019 41.8454V83.717C238.018 84.7365 237.612 85.7139 236.891 86.4348C236.171 87.1557 235.193 87.5612 234.173 87.5623Z" fill="#F2F2F2"/>
<path d="M237.592 46.118H220.499V49.5361H237.592V46.118Z" fill="#CCCCCC"/>
<path d="M237.592 72.6082H220.499V76.0263H237.592V72.6082Z" fill="#CCCCCC"/>
<path d="M259.812 87.5623H249.557C248.537 87.5612 247.559 87.1557 246.838 86.4348C246.117 85.7139 245.712 84.7365 245.711 83.717V41.8454C245.712 40.8259 246.117 39.8484 246.838 39.1275C247.559 38.4067 248.537 38.0011 249.557 38H259.812C260.832 38.0011 261.809 38.4067 262.53 39.1275C263.251 39.8484 263.657 40.8259 263.658 41.8454V83.717C263.657 84.7365 263.251 85.7139 262.53 86.4348C261.809 87.1557 260.832 87.5612 259.812 87.5623Z" fill="#F2F2F2"/>
<path d="M263.231 46.118H246.138V49.5361H263.231V46.118Z" fill="#CCCCCC"/>
<path d="M263.231 72.6082H246.138V76.0263H263.231V72.6082Z" fill="#CCCCCC"/>
<path d="M298.22 88.8441H54.6515C54.4248 88.8441 54.2075 88.7541 54.0472 88.5938C53.8869 88.4336 53.7969 88.2162 53.7969 87.9896C53.7969 87.763 53.8869 87.5456 54.0472 87.3854C54.2075 87.2251 54.4248 87.1351 54.6515 87.1351H298.22C298.446 87.1351 298.664 87.2251 298.824 87.3854C298.984 87.5456 299.074 87.763 299.074 87.9896C299.074 88.2162 298.984 88.4336 298.824 88.5938C298.664 88.7541 298.446 88.8441 298.22 88.8441Z" fill="#CCCCCC"/>
<path d="M298.22 158.061H54.6515C54.4248 158.061 54.2075 157.97 54.0472 157.81C53.8869 157.65 53.7969 157.433 53.7969 157.206C53.7969 156.979 53.8869 156.762 54.0472 156.602C54.2075 156.441 54.4248 156.351 54.6515 156.351H298.22C298.446 156.351 298.664 156.441 298.824 156.602C298.984 156.762 299.074 156.979 299.074 157.206C299.074 157.433 298.984 157.65 298.824 157.81C298.664 157.97 298.446 158.061 298.22 158.061Z" fill="#CCCCCC"/>
<path d="M298.22 227.277H54.6515C54.4248 227.277 54.2075 227.187 54.0472 227.027C53.8869 226.866 53.7969 226.649 53.7969 226.422C53.7969 226.196 53.8869 225.978 54.0472 225.818C54.2075 225.658 54.4248 225.568 54.6515 225.568H298.22C298.446 225.568 298.664 225.658 298.824 225.818C298.984 225.978 299.074 226.196 299.074 226.422C299.074 226.649 298.984 226.866 298.824 227.027C298.664 227.187 298.446 227.277 298.22 227.277Z" fill="#CCCCCC"/>
<path d="M283.795 361.422C283.795 354.815 258.924 349.459 228.245 349.459C197.565 349.459 172.694 354.815 172.694 361.422C172.694 365.656 182.919 369.374 198.333 371.5V437.047C198.333 438.52 198.918 439.933 199.96 440.975C201.002 442.016 202.415 442.602 203.888 442.602C205.361 442.602 206.774 442.016 207.816 440.975C208.858 439.933 209.443 438.52 209.443 437.047V372.681C215.316 373.136 221.644 373.385 228.245 373.385C234.845 373.385 241.173 373.136 247.047 372.681V437.047C247.047 438.52 247.632 439.933 248.674 440.975C249.715 442.016 251.128 442.602 252.602 442.602C254.075 442.602 255.488 442.016 256.53 440.975C257.571 439.933 258.157 438.52 258.157 437.047V371.5C273.57 369.374 283.795 365.656 283.795 361.422Z" fill="#CCCCCC"/>
<path d="M273.107 431.855H283.584L288.569 391.446H273.105L273.107 431.855Z" fill="#A0616A"/>
<path d="M303.791 441.582L270.862 441.583L270.861 428.862L291.068 428.861C294.442 428.861 297.678 430.201 300.064 432.586C302.451 434.972 303.791 438.208 303.791 441.582Z" fill="#2F2E41"/>
<path d="M289.462 426.008L299.459 422.871L292.116 382.824L277.362 387.453L289.462 426.008Z" fill="#A0616A"/>
<path d="M321.652 426.103L290.233 435.962L286.424 423.824L305.703 417.775C308.923 416.764 312.412 417.074 315.403 418.636C318.394 420.198 320.641 422.884 321.652 426.103Z" fill="#2F2E41"/>
<path d="M282.453 407.409L263.286 357.103C258.986 358.112 222.925 366.091 210.847 353.233C206.708 348.826 205.9 342.441 208.447 334.256L215.496 325.399L215.715 325.411C218.38 325.551 281.039 329.063 285.334 347.961C288.955 363.893 295.569 393.597 297.51 402.321C297.707 403.225 297.572 404.17 297.131 404.983C296.689 405.796 295.97 406.423 295.105 406.751L287.397 409.641C286.968 409.802 286.512 409.885 286.054 409.885C285.273 409.885 284.511 409.648 283.869 409.206C283.226 408.764 282.732 408.138 282.453 407.409Z" fill="#2F2E41"/>
<path d="M271.343 413.391L252.176 363.084C247.875 364.094 211.815 372.072 199.737 359.215C195.598 354.808 194.79 348.423 197.337 340.237L204.386 331.381L204.605 331.393C207.27 331.533 269.929 335.044 274.224 353.942C277.845 369.875 284.459 399.578 286.4 408.303C286.597 409.207 286.462 410.152 286.021 410.965C285.579 411.778 284.86 412.405 283.995 412.733L276.287 415.622C275.857 415.784 275.402 415.867 274.943 415.867C274.163 415.867 273.401 415.63 272.758 415.188C272.116 414.746 271.622 414.119 271.343 413.391Z" fill="#2F2E41"/>
<path d="M297.245 292.798C296.961 293.177 296.709 293.578 296.488 293.996L254.338 298.436L248.271 290.118L234.519 297.634L246.436 317.818L298.13 304.64C299.435 305.911 301.095 306.755 302.891 307.06C304.687 307.365 306.533 307.116 308.183 306.346C309.834 305.576 311.211 304.322 312.132 302.751C313.053 301.179 313.473 299.365 313.337 297.549C313.201 295.732 312.516 294.001 311.371 292.584C310.227 291.167 308.679 290.131 306.932 289.616C305.185 289.1 303.322 289.128 301.592 289.697C299.862 290.265 298.345 291.347 297.245 292.798Z" fill="#A0616A"/>
<path d="M197.066 342.894C196.489 342.478 196.039 341.911 195.765 341.255C195.49 340.599 195.403 339.88 195.512 339.178C197.89 323.503 195.154 301.05 192.44 284.973C191.884 281.711 192.101 278.364 193.071 275.201C194.042 272.038 195.74 269.146 198.029 266.757C200.319 264.367 203.136 262.548 206.256 261.443C209.375 260.338 212.71 259.98 215.993 260.395C218.849 260.773 221.679 261.33 224.465 262.065C229.092 263.23 233.185 265.935 236.072 269.735C238.958 273.535 240.465 278.204 240.345 282.973C239.939 298.487 243.09 317.843 244.463 325.444C244.557 325.966 244.542 326.502 244.419 327.018C244.297 327.535 244.069 328.02 243.751 328.444C243.438 328.864 243.042 329.214 242.586 329.472C242.13 329.729 241.626 329.889 241.105 329.94C225.886 331.493 209.474 338.914 201.045 343.199C200.503 343.479 199.903 343.625 199.293 343.627C198.492 343.624 197.712 343.368 197.066 342.894Z" fill="#CAD2C5"/>
<path d="M238.149 302.465C237.678 302.28 237.249 302.004 236.887 301.652C236.524 301.301 236.234 300.88 236.035 300.416L227.547 280.811C227.033 279.627 226.758 278.353 226.737 277.062C226.715 275.771 226.949 274.488 227.424 273.287C227.898 272.087 228.605 270.991 229.504 270.064C230.402 269.136 231.474 268.395 232.659 267.882C233.845 267.369 235.119 267.095 236.41 267.075C237.701 267.055 238.984 267.289 240.184 267.765C241.385 268.241 242.48 268.948 243.407 269.847C244.333 270.746 245.074 271.819 245.586 273.005L254.074 292.609C254.477 293.545 254.494 294.603 254.118 295.551C253.743 296.499 253.007 297.259 252.072 297.666L241.092 302.418C240.629 302.62 240.13 302.728 239.625 302.736C239.12 302.744 238.618 302.652 238.149 302.465Z" fill="#CAD2C5"/>
<path d="M257.077 291.089C256.794 291.468 256.541 291.869 256.321 292.287L214.171 296.727L208.103 288.409L194.352 295.925L206.269 316.109L257.963 302.931C259.267 304.202 260.928 305.046 262.723 305.351C264.519 305.656 266.365 305.407 268.016 304.637C269.667 303.867 271.044 302.613 271.965 301.042C272.885 299.47 273.306 297.656 273.17 295.84C273.034 294.023 272.348 292.292 271.204 290.875C270.06 289.458 268.511 288.422 266.764 287.907C265.018 287.391 263.155 287.419 261.425 287.988C259.694 288.556 258.178 289.638 257.077 291.089Z" fill="#A0616A"/>
<path d="M197.981 303.319C197.511 303.135 197.082 302.858 196.719 302.507C196.356 302.155 196.067 301.735 195.867 301.271L187.38 281.666C186.866 280.481 186.59 279.207 186.569 277.916C186.548 276.625 186.781 275.343 187.256 274.142C187.731 272.941 188.438 271.846 189.336 270.918C190.235 269.991 191.307 269.25 192.492 268.737C193.677 268.224 194.952 267.949 196.243 267.929C197.534 267.909 198.816 268.144 200.017 268.62C201.217 269.095 202.312 269.803 203.239 270.702C204.166 271.601 204.907 272.674 205.418 273.859L213.906 293.464C214.31 294.4 214.326 295.458 213.951 296.406C213.576 297.354 212.84 298.114 211.905 298.52L200.925 303.273C200.462 303.475 199.963 303.583 199.458 303.591C198.952 303.599 198.451 303.507 197.981 303.319Z" fill="#CAD2C5"/>
<path d="M214.431 253.726C226.024 253.726 235.421 244.329 235.421 232.738C235.421 221.147 226.024 211.75 214.431 211.75C202.838 211.75 193.44 221.147 193.44 232.738C193.44 244.329 202.838 253.726 214.431 253.726Z" fill="#A0616A"/>
<path d="M199.423 247.142C199.333 246.879 199.305 246.599 199.34 246.322C199.375 246.046 199.473 245.782 199.626 245.549C199.779 245.317 199.983 245.122 200.223 244.981C200.463 244.84 200.732 244.755 201.01 244.734C201.578 244.764 202.135 244.91 202.645 245.162C203.156 245.414 203.61 245.767 203.98 246.199C204.74 247.075 205.624 247.834 206.605 248.453C207.621 248.964 208.998 248.891 209.577 247.916C210.12 246.999 209.748 245.773 209.419 244.708C208.581 242.001 208.113 239.192 208.026 236.36C207.931 233.198 208.377 229.898 210.128 227.431C212.387 224.249 216.428 223.04 220.251 223.128C224.075 223.215 227.836 224.396 231.624 225.142C232.931 225.399 234.468 225.531 235.343 224.518C236.273 223.44 235.931 221.696 235.536 220.242C234.509 216.467 233.42 212.564 231.036 209.516C228.457 206.348 224.774 204.275 220.728 203.713C216.844 203.232 212.901 203.68 209.223 205.019C203.231 206.908 197.959 210.58 194.111 215.546C190.144 220.827 188.43 227.463 189.344 234.004C190.236 239.7 193.255 244.847 197.792 248.406L199.423 247.142Z" fill="#2F2E41"/>
<path d="M119.277 297.669C120.333 286.3 123.249 275.18 127.909 264.756C129.208 261.854 130.637 259.017 132.197 256.244C132.276 256.099 132.294 255.929 132.25 255.77C132.205 255.612 132.101 255.477 131.959 255.393C131.816 255.31 131.647 255.286 131.487 255.325C131.327 255.364 131.189 255.463 131.1 255.603C125.426 265.704 121.451 276.669 119.334 288.059C118.745 291.24 118.303 294.444 118.006 297.669C117.931 298.483 119.202 298.478 119.277 297.669Z" fill="#3F3D56"/>
<path d="M135.274 258.281C139.718 258.281 143.32 254.679 143.32 250.236C143.32 245.793 139.718 242.191 135.274 242.191C130.831 242.191 127.229 245.793 127.229 250.236C127.229 254.679 130.831 258.281 135.274 258.281Z" fill="#CAD2C5"/>
<path d="M120.1 297.883C120.785 290.507 122.677 283.293 125.7 276.53C126.542 274.648 127.47 272.808 128.482 271.008C128.533 270.914 128.545 270.804 128.516 270.701C128.487 270.598 128.419 270.511 128.327 270.457C128.235 270.403 128.125 270.387 128.021 270.412C127.917 270.437 127.827 270.502 127.77 270.592C124.089 277.146 121.51 284.259 120.137 291.649C119.755 293.712 119.468 295.79 119.276 297.883C119.227 298.411 120.051 298.408 120.1 297.883Z" fill="#3F3D56"/>
<path d="M130.478 272.33C133.361 272.33 135.698 269.993 135.698 267.111C135.698 264.229 133.361 261.892 130.478 261.892C127.595 261.892 125.258 264.229 125.258 267.111C125.258 269.993 127.595 272.33 130.478 272.33Z" fill="#CAD2C5"/>
<path d="M119.059 297.39C115.062 291.153 112.117 284.302 110.34 277.11C109.847 275.108 109.446 273.086 109.137 271.045C109.119 270.94 109.061 270.845 108.975 270.782C108.889 270.719 108.782 270.691 108.676 270.705C108.57 270.72 108.473 270.774 108.407 270.858C108.341 270.942 108.31 271.048 108.32 271.155C109.449 278.586 111.791 285.781 115.254 292.452C116.222 294.314 117.274 296.129 118.41 297.897C118.696 298.343 119.344 297.834 119.059 297.39Z" fill="#3F3D56"/>
<path d="M108.314 271.964C111.196 271.964 113.533 269.627 113.533 266.745C113.533 263.862 111.196 261.525 108.314 261.525C105.431 261.525 103.094 263.862 103.094 266.745C103.094 269.627 105.431 271.964 108.314 271.964Z" fill="#CAD2C5"/>
<path d="M103.035 302.008V291.754C103.037 290.734 103.442 289.757 104.163 289.036C104.884 288.315 105.862 287.909 106.881 287.908H130.811C131.83 287.909 132.808 288.315 133.529 289.036C134.25 289.757 134.655 290.734 134.657 291.754V302.008C134.655 303.027 134.25 304.005 133.529 304.726C132.808 305.447 131.83 305.852 130.811 305.853H106.881C105.862 305.852 104.884 305.447 104.163 304.726C103.442 304.005 103.037 303.027 103.035 302.008Z" fill="#CCCCCC"/>
<path d="M317.553 299.042H250.038C248.386 299.042 247.047 300.381 247.047 302.032C247.047 303.684 248.386 305.023 250.038 305.023H317.553C319.205 305.023 320.544 303.684 320.544 302.032C320.544 300.381 319.205 299.042 317.553 299.042Z" fill="#CCCCCC"/>
<path d="M362.848 305.023H286.787C285.314 305.022 283.902 304.436 282.86 303.395C281.819 302.353 281.233 300.942 281.232 299.469V257.597C281.233 256.125 281.819 254.713 282.86 253.672C283.902 252.63 285.314 252.045 286.787 252.043H362.848C364.321 252.045 365.733 252.63 366.774 253.672C367.816 254.713 368.402 256.125 368.403 257.597V299.469C368.402 300.942 367.816 302.353 366.774 303.395C365.733 304.436 364.321 305.022 362.848 305.023Z" fill="#CCCCCC"/>
<path d="M324.817 283.66C327.649 283.66 329.945 281.365 329.945 278.533C329.945 275.701 327.649 273.406 324.817 273.406C321.985 273.406 319.69 275.701 319.69 278.533C319.69 281.365 321.985 283.66 324.817 283.66Z" fill="white"/>
<path d="M556.421 361.422C556.421 354.815 531.55 349.459 500.87 349.459C470.191 349.459 445.32 354.815 445.32 361.422C445.32 365.656 455.545 369.374 470.958 371.5V437.047C470.958 438.52 471.544 439.933 472.585 440.975C473.627 442.016 475.04 442.602 476.514 442.602C477.987 442.602 479.4 442.016 480.442 440.975C481.483 439.933 482.069 438.52 482.069 437.047V372.681C487.942 373.136 494.27 373.385 500.87 373.385C507.471 373.385 513.799 373.136 519.672 372.681V437.047C519.672 438.52 520.257 439.933 521.299 440.975C522.341 442.016 523.754 442.602 525.227 442.602C526.7 442.602 528.113 442.016 529.155 440.975C530.197 439.933 530.782 438.52 530.782 437.047V371.5C546.196 369.374 556.421 365.656 556.421 361.422Z" fill="#CCCCCC"/>
<path d="M507.013 251.921C520.229 251.921 530.942 241.209 530.942 227.994C530.942 214.78 520.229 204.068 507.013 204.068C493.797 204.068 483.083 214.78 483.083 227.994C483.083 241.209 493.797 251.921 507.013 251.921Z" fill="#2F2E41"/>
<path d="M447.462 432.709H436.985L432 392.301H447.464L447.462 432.709Z" fill="#FFB8B8"/>
<path d="M429.501 429.716H449.707V442.437H416.778C416.778 440.766 417.107 439.112 417.746 437.569C418.386 436.025 419.323 434.623 420.504 433.442C421.686 432.26 423.088 431.323 424.632 430.684C426.175 430.045 427.83 429.716 429.501 429.716Z" fill="#2F2E41"/>
<path d="M431.106 426.863L421.11 423.726L428.453 383.679L443.207 388.308L431.106 426.863Z" fill="#FFB8B8"/>
<path d="M414.866 418.629L434.145 424.679L430.336 436.816L398.917 426.958C399.417 425.364 400.227 423.884 401.299 422.603C402.371 421.322 403.685 420.264 405.166 419.491C406.647 418.717 408.266 418.243 409.93 418.095C411.594 417.947 413.271 418.129 414.866 418.629Z" fill="#2F2E41"/>
<path d="M434.515 410.74C434.056 410.74 433.601 410.657 433.172 410.495L425.464 407.605C424.598 407.278 423.88 406.65 423.438 405.837C422.997 405.024 422.862 404.08 423.059 403.176C424.999 394.451 431.613 364.747 435.235 348.815C439.53 329.917 502.189 326.406 504.854 326.265L505.073 326.254L512.121 335.11C514.668 343.296 513.861 349.681 509.722 354.087C497.644 366.945 461.583 358.967 457.283 357.957L438.116 408.264C437.837 408.992 437.343 409.619 436.7 410.061C436.057 410.503 435.296 410.74 434.515 410.74Z" fill="#2F2E41"/>
<path d="M445.625 416.721C445.167 416.721 444.711 416.639 444.282 416.477L436.574 413.587C435.708 413.26 434.99 412.632 434.548 411.819C434.107 411.006 433.972 410.062 434.169 409.158C436.11 400.433 442.723 370.729 446.345 354.797C450.64 335.899 513.299 332.387 515.964 332.247L516.183 332.235L523.232 341.092C525.778 349.277 524.971 355.662 520.832 360.069C508.754 372.926 472.693 364.948 468.393 363.939L449.226 414.245C448.947 414.974 448.453 415.6 447.81 416.043C447.168 416.485 446.406 416.721 445.625 416.721Z" fill="#2F2E41"/>
<path d="M423.324 293.653C423.607 294.032 423.86 294.432 424.08 294.851L466.231 299.291L472.298 290.973L486.05 298.488L474.132 318.673L422.438 305.494C421.134 306.765 419.474 307.61 417.678 307.915C415.882 308.219 414.036 307.97 412.385 307.201C410.735 306.431 409.357 305.177 408.437 303.605C407.516 302.034 407.096 300.219 407.232 298.403C407.368 296.587 408.053 294.855 409.197 293.438C410.342 292.021 411.89 290.986 413.637 290.47C415.384 289.955 417.246 289.983 418.977 290.551C420.707 291.12 422.224 292.202 423.324 293.653Z" fill="#FFB8B8"/>
<path d="M521.275 344.482C520.666 344.48 520.066 344.333 519.524 344.053C511.095 339.768 494.683 332.347 479.464 330.794C478.943 330.743 478.438 330.584 477.983 330.326C477.527 330.069 477.131 329.719 476.818 329.299C476.5 328.875 476.272 328.389 476.149 327.873C476.027 327.357 476.012 326.821 476.106 326.299C477.479 318.697 480.629 299.341 480.224 283.828C480.104 279.058 481.611 274.389 484.497 270.59C487.383 266.79 491.477 264.085 496.104 262.92C498.89 262.185 501.72 261.627 504.576 261.25C507.859 260.834 511.194 261.193 514.313 262.298C517.433 263.402 520.25 265.222 522.539 267.611C524.829 270 526.527 272.892 527.498 276.056C528.468 279.219 528.684 282.566 528.129 285.827C525.415 301.904 522.679 324.358 525.057 340.032C525.166 340.735 525.079 341.454 524.804 342.109C524.53 342.765 524.079 343.332 523.503 343.748C522.857 344.222 522.077 344.479 521.275 344.482Z" fill="#CAD2C5"/>
<path d="M481.004 303.591C480.478 303.591 479.959 303.482 479.477 303.273L468.497 298.52C467.562 298.114 466.826 297.354 466.451 296.406C466.075 295.458 466.091 294.4 466.495 293.464L474.983 273.859C475.495 272.674 476.235 271.601 477.162 270.702C478.089 269.803 479.184 269.095 480.385 268.62C481.585 268.144 482.867 267.909 484.159 267.929C485.45 267.95 486.724 268.224 487.909 268.737C489.095 269.25 490.167 269.991 491.065 270.918C491.964 271.846 492.67 272.941 493.145 274.142C493.62 275.343 493.853 276.625 493.832 277.916C493.811 279.207 493.536 280.481 493.022 281.666L484.534 301.271C484.235 301.959 483.742 302.545 483.115 302.958C482.488 303.37 481.754 303.59 481.004 303.591Z" fill="#CAD2C5"/>
<path d="M506.138 254.581C517.731 254.581 527.128 245.184 527.128 233.593C527.128 222.001 517.731 212.605 506.138 212.605C494.545 212.605 485.148 222.001 485.148 233.593C485.148 245.184 494.545 254.581 506.138 254.581Z" fill="#FFB8B8"/>
<path d="M484.77 223.281C494.712 229.35 505.921 233.042 517.524 234.072L514.072 229.936C516.586 230.865 519.231 231.39 521.909 231.492C524.584 231.45 527.387 230.42 528.906 228.218C529.583 227.123 529.985 225.88 530.078 224.596C530.171 223.312 529.952 222.025 529.44 220.843C528.388 218.487 526.75 216.44 524.683 214.896C521.018 211.997 516.694 210.051 512.094 209.229C507.495 208.407 502.764 208.735 498.322 210.185C495.276 211.096 492.547 212.846 490.449 215.235C488.459 217.69 484.628 219.876 485.647 222.867L484.77 223.281Z" fill="#2F2E41"/>
<path d="M509.667 206.344C503.047 199.631 495.035 194.451 486.197 191.168C480.523 189.066 474.348 187.768 468.416 188.961C462.485 190.155 456.875 194.258 455.221 200.077C453.867 204.835 455.265 209.958 457.365 214.438C459.464 218.917 462.268 223.07 463.966 227.717C465.699 232.458 466.22 237.556 465.482 242.549C464.744 247.543 462.771 252.273 459.741 256.31C456.711 260.348 452.721 263.564 448.132 265.669C443.544 267.773 438.502 268.698 433.465 268.36C439.293 269.141 444.665 271.88 450.362 273.337C456.059 274.795 462.782 274.696 467.015 270.615C471.494 266.298 471.584 259.278 471.368 253.061L470.402 225.336C470.238 220.623 470.098 215.759 471.797 211.36C473.497 206.961 477.537 203.109 482.254 203.149C485.828 203.18 488.992 205.345 491.858 207.48C494.725 209.615 497.759 211.893 501.32 212.211C504.88 212.529 508.945 209.894 508.679 206.33" fill="#2F2E41"/>
<path d="M412.098 278.195L460.429 279.336L467.431 330.997L422.797 331.999L412.098 278.195Z" fill="#E6E6E6"/>
<path d="M463.492 291.944C463.775 292.323 464.028 292.723 464.248 293.142L506.398 297.582L512.466 289.264L526.217 296.779L514.3 316.964L462.606 303.785C461.302 305.056 459.641 305.901 457.846 306.205C456.05 306.51 454.204 306.261 452.553 305.492C450.902 304.722 449.525 303.468 448.604 301.896C447.684 300.325 447.263 298.51 447.399 296.694C447.535 294.878 448.221 293.146 449.365 291.729C450.509 290.312 452.057 289.277 453.804 288.761C455.551 288.246 457.414 288.274 459.144 288.842C460.875 289.411 462.391 290.493 463.492 291.944Z" fill="#FFB8B8"/>
<path d="M521.171 304.446C520.646 304.445 520.126 304.337 519.644 304.127L508.664 299.375C507.729 298.969 506.993 298.208 506.618 297.26C506.243 296.312 506.259 295.255 506.663 294.318L515.15 274.714C515.662 273.528 516.403 272.455 517.33 271.556C518.257 270.657 519.351 269.95 520.552 269.474C521.752 268.998 523.035 268.764 524.326 268.784C525.617 268.804 526.892 269.078 528.077 269.591C529.262 270.104 530.334 270.845 531.233 271.773C532.131 272.7 532.838 273.796 533.313 274.997C533.787 276.197 534.021 277.48 534 278.771C533.978 280.062 533.703 281.336 533.189 282.52L524.701 302.125C524.403 302.814 523.91 303.4 523.283 303.812C522.655 304.224 521.922 304.445 521.171 304.446Z" fill="#CAD2C5"/>
<path d="M421.817 304.169H81.6765C80.2032 304.169 78.7903 304.754 77.7485 305.796C76.7067 306.837 76.1215 308.25 76.1215 309.723C76.1215 311.196 76.7067 312.609 77.7485 313.651C78.7903 314.692 80.2032 315.278 81.6765 315.278H91.5047V436.193C91.5047 437.666 92.09 439.079 93.1318 440.12C94.1735 441.162 95.5865 441.747 97.0598 441.747C98.5331 441.747 99.946 441.162 100.988 440.12C102.03 439.079 102.615 437.666 102.615 436.193V325.951L164.892 438.814C165.631 440.087 166.844 441.015 168.265 441.394C169.687 441.773 171.201 441.573 172.475 440.838C173.749 440.102 174.68 438.891 175.062 437.47C175.444 436.05 175.247 434.535 174.514 433.26L109.412 315.278H406.862V315.35L341.8 433.26C341.063 434.536 340.864 436.052 341.245 437.474C341.626 438.897 342.557 440.111 343.833 440.847C345.109 441.584 346.625 441.783 348.048 441.402C349.471 441.021 350.684 440.09 351.421 438.814L406.862 338.341V436.193C406.862 437.666 407.447 439.079 408.489 440.12C409.53 441.162 410.943 441.747 412.417 441.747C413.89 441.747 415.303 441.162 416.345 440.12C417.386 439.079 417.972 437.666 417.972 436.193V318.206L419.588 315.278H421.817C423.291 315.278 424.704 314.692 425.745 313.651C426.787 312.609 427.373 311.196 427.373 309.723C427.373 308.25 426.787 306.837 425.745 305.796C424.704 304.754 423.291 304.169 421.817 304.169Z" fill="#3F3D56"/>
<path d="M631.982 443H1.01758C0.748205 442.999 0.49014 442.892 0.299941 442.701C0.109743 442.51 0.00292969 442.252 0.00292969 441.983C0.00292969 441.713 0.109743 441.455 0.299941 441.264C0.49014 441.073 0.748205 440.966 1.01758 440.965H631.982C632.252 440.965 632.511 441.072 632.702 441.263C632.893 441.454 633 441.713 633 441.983C633 442.252 632.893 442.511 632.702 442.702C632.511 442.893 632.252 443 631.982 443Z" fill="#3F3D56"/>
</g>
<defs>
<clipPath id="clip0_19_9">
<rect width="633" height="405" fill="white" transform="translate(0 38)"/>
</clipPath>
</defs>
</svg>
